<svg width="23" height="22" viewBox="0 0 23 22" fill="none" xmlns="http://www.w3.org/2000/svg">
<g clip-path="url(#clip0_19_2892)">
<path fill-rule="evenodd" clip-rule="evenodd" d="M4.52894 12.788L9.11686 17.7531L4.85665 18.7464L2.56269 16.7604L4.52894 12.788ZM16.6375 3.25469L18.6502 4.36115L17.9793 8.02135L13.2829 4.95698L16.6375 3.25469ZM4.12675 3.25469C4.35019 3.25469 4.52954 3.26422 4.79707 3.47812C5.16946 3.77604 6.54286 4.74844 6.54286 4.74844L6.79192 5.19115C7.24534 5.21379 7.25667 5.2549 7.82926 5.67556L20.4377 14.2281C20.3406 14.4385 18.8415 18.7464 18.8415 18.7464H16.5272L2.56269 3.99948C2.56269 3.99948 2.7903 3.91427 3.00957 3.77604C3.35336 3.55975 3.78594 3.25469 4.12675 3.25469ZM5.83977 0.275521H0.775191C0.460591 0.432821 0.179358 0.615146 0.179358 1.24375V5.3401V6.60625L0.768041 8.2436L0.179358 9.06406V9.73437L0.775191 10.1812V11.0005L0.179358 11.5964V13.8307L0.775191 14.2031V16.6609C0.153141 17.1036 0.179358 17.6292 0.179358 18.2333V21.0552C1.57301 21.4032 1.34183 21.7255 2.93509 21.7255C4.34304 21.7255 5.24394 21.7255 5.24394 21.7255C5.45963 21.7118 5.62766 21.6665 5.83977 21.6463C6.43203 21.5891 6.808 21.1297 6.808 21.1297L8.37207 21.7255L8.9679 21.1297C8.9679 21.1297 9.74904 22.0967 9.93613 22.3214L10.4575 21.7255L12.096 22.3214C12.096 22.3214 12.7038 21.738 13.3622 21.7255H16.5648C16.6136 21.6784 17.1606 21.1297 17.1606 21.1297C17.4115 21.2798 17.1898 21.7255 19.4695 21.7255C20.0987 21.7255 20.6611 21.5766 20.6611 21.5766C20.5646 21.2548 20.5539 21.3204 20.3632 21.1297C20.3632 21.1297 21.8528 21.1297 22.821 21.7255V12.4943L21.6294 12.8625C21.6526 12.6736 22.2031 12.4228 22.2252 12.0432C22.2532 11.5648 22.199 9.90657 22.1293 9.55622C22.0935 9.37747 21.7521 8.85373 21.6294 8.69167C21.7753 8.29782 22.2252 8.02135 22.2252 8.02135V7.57448L22.821 7.22711V4.7115L22.2252 2.21198L22.821 1.56669V0.854075L22.1918 0.308888L20.1481 -0.0289501L19.6762 0.308888L19.4403 -0.0843626C19.4403 -0.0843626 16.3515 -0.319121 15.7914 -0.319121C15.0746 -0.319121 15.1789 -0.265496 14.9364 0.541858L13.908 0.646725L13.809 0.275521H12.7663L12.9379 0.0866417C13.1203 -0.0855541 13.0565 -0.0164375 13.1989 -0.320312H9.61319C9.55718 -0.217829 9.35221 0.0145458 9.19074 0.275521C9.19074 0.275521 8.87614 0.272542 8.64019 0.429842C8.40424 0.587142 8.40543 0.871354 8.09083 0.871354C7.77623 0.871354 7.1238 0.871354 6.75438 0.871354C5.96788 0.871354 5.83977 0.275521 5.83977 0.275521Z" fill="#F44336"/>
</g>
<defs>
<clipPath id="clip0_19_2892">
<rect x="0.5" width="22" height="22" rx="5" fill="white"/>
</clipPath>
</defs>
</svg>
