<svg width="23" height="22" viewBox="0 0 23 22" fill="none" xmlns="http://www.w3.org/2000/svg">
<rect x="0.5" width="22" height="22" rx="5" fill="#4B72FF"/>
<path d="M10.95 18.3105C9.30455 18.1885 7.8109 17.5255 6.64624 16.4961C7.67003 15.108 8.31555 13.4038 8.42261 11.5498H10.95V18.3105ZM14.5779 11.5498C14.6849 13.4034 15.3289 15.1081 16.3523 16.4961C15.1877 17.5252 13.6947 18.1886 12.0496 18.3105V11.5498H14.5779ZM7.31909 11.5498C7.21797 13.0972 6.69466 14.52 5.8689 15.6953C4.91694 14.5548 4.30567 13.1218 4.18921 11.5498H7.31909ZM18.8103 11.5498C18.6938 13.1219 18.0826 14.5548 17.1306 15.6953C16.305 14.52 15.7815 13.0971 15.6804 11.5498H18.8103ZM5.8689 6.30371C6.69504 7.47914 7.21795 8.90241 7.31909 10.4502H4.18921C4.30587 8.87802 4.9166 7.44421 5.8689 6.30371ZM10.95 10.4502H8.42261C8.31556 8.59632 7.67094 6.89189 6.64722 5.50391C7.81175 4.475 9.30499 3.81145 10.95 3.68945V10.4502ZM12.0496 3.68945C13.6946 3.81138 15.1877 4.47502 16.3523 5.50391C15.3287 6.89182 14.6849 8.59649 14.5779 10.4502H12.0496V3.68945ZM17.1306 6.30469C18.0827 7.44511 18.6937 8.87822 18.8103 10.4502H15.6804C15.7815 8.90282 16.3049 7.47993 17.1306 6.30469Z" fill="white"/>
</svg>
