<svg width="23" height="22" viewBox="0 0 23 22" fill="none" xmlns="http://www.w3.org/2000/svg">
<g clip-path="url(#clip0_19_2882)">
<mask id="mask0_19_2882" style="mask-type:luminance" maskUnits="userSpaceOnUse" x="0" y="0" width="23" height="22">
<path d="M22.5 0H0.5V22H22.5V0Z" fill="white"/>
</mask>
<g mask="url(#mask0_19_2882)">
<path d="M22.5 0H0.5V22H22.5V0Z" fill="#EEF2FF"/>
<path d="M22.5 0H0.5V22H22.5V0Z" fill="#EEF2FF"/>
<path fill-rule="evenodd" clip-rule="evenodd" d="M0.5 11V22H11.5H22.5V11V0H11.5H0.5V11ZM12.3611 6.70632C12.6386 6.76856 12.7944 6.87789 12.9427 7.11449C12.9824 7.17791 13.028 7.2457 13.0439 7.26514C13.0723 7.29969 13.0799 7.36905 13.0586 7.40033C13.0541 7.40703 13.0406 7.45363 13.0285 7.50387C13.0163 7.55412 12.998 7.60155 12.9875 7.60926C12.977 7.61697 12.9432 7.62664 12.9122 7.63074C12.8452 7.63964 12.837 7.64596 12.853 7.67601C12.8647 7.69799 12.9032 7.69879 13.9548 7.69879H15.0446L15.075 7.65058C15.1099 7.59524 15.1419 7.57386 15.1669 7.58924C15.1828 7.59913 15.1865 7.62012 15.1898 7.7201L15.191 7.75969H15.42C15.5819 7.75969 15.6533 7.76398 15.6637 7.77431C15.6718 7.78235 15.6783 7.80965 15.6783 7.83498C15.6783 7.89601 15.6667 7.89837 15.403 7.89112L15.191 7.88528L15.1889 7.94735C15.1877 7.98148 15.1862 8.03521 15.1854 8.06675C15.1845 8.09829 15.1803 8.12776 15.1758 8.13223C15.1713 8.13671 14.8856 8.13937 14.5409 8.13815C13.9251 8.13597 13.9139 8.13636 13.9063 8.16013C13.9021 8.17344 13.8965 8.20252 13.8939 8.22479C13.8913 8.24703 13.8857 8.27893 13.8816 8.29568C13.8774 8.31243 13.8727 8.33162 13.8711 8.33832C13.8696 8.34501 13.8531 8.38339 13.8344 8.42359C13.8088 8.47881 13.8023 8.50711 13.808 8.53932C13.8122 8.56276 13.8182 8.60052 13.8215 8.62323C13.8247 8.64594 13.8311 8.67051 13.8356 8.67783C13.8401 8.68516 13.845 8.69948 13.8464 8.70963C13.8479 8.71981 13.8604 8.77198 13.8743 8.82561C13.9121 8.97186 13.9121 8.97213 13.8297 8.98814C13.7912 8.99571 13.687 9.01666 13.5981 9.0347C13.4936 9.0559 13.4321 9.0633 13.4245 9.05564C13.418 9.04913 13.4064 9.0112 13.3986 8.97125C13.375 8.84963 13.3539 8.84664 13.3163 8.95955C13.231 9.21562 13.1648 9.28734 12.9665 9.33794C12.8826 9.35933 12.8778 9.35933 12.8203 9.33777C12.7875 9.32545 12.7055 9.28338 12.6379 9.24414C12.5702 9.20489 12.5061 9.17277 12.4953 9.17277C12.4632 9.17277 12.3649 9.28206 12.3649 9.3177C12.3649 9.3251 12.3847 9.35299 12.409 9.37983C12.4332 9.40667 12.4469 9.42859 12.4394 9.42859C12.4319 9.42859 12.4258 9.43976 12.4258 9.4534C12.4258 9.46704 12.4169 9.49168 12.4061 9.50814C12.3953 9.52468 12.3901 9.53823 12.3946 9.53823C12.3991 9.53823 12.3887 9.55654 12.3716 9.57898C12.3545 9.60133 12.3405 9.62641 12.3405 9.63459C12.3405 9.64286 12.3322 9.65782 12.3222 9.66794C12.3121 9.67807 12.3069 9.69135 12.3107 9.69751C12.3145 9.70367 12.3118 9.70878 12.3047 9.70878C12.2976 9.70878 12.2918 9.71476 12.2918 9.72206C12.2918 9.72946 12.2815 9.74996 12.2688 9.76782C12.2561 9.7856 12.2455 9.80285 12.2452 9.80619C12.2442 9.82036 12.2153 9.878 12.1751 9.94629C12.1515 9.9865 12.1213 10.0413 12.108 10.0681C12.0543 10.1768 12.0515 10.1794 11.972 10.1903L11.913 10.1985L11.9152 10.2855C11.9164 10.3335 11.92 10.3771 11.9231 10.3827C11.9263 10.3882 11.9307 10.4251 11.9329 10.4647C11.9351 10.5042 11.9412 10.5435 11.9466 10.5521C11.952 10.5606 11.9568 10.5703 11.9571 10.5736C11.9595 10.5945 12.0024 10.6589 12.014 10.6589C12.0216 10.6589 12.0244 10.6624 12.0201 10.6667C12.0158 10.671 12.0231 10.6896 12.0363 10.7081C12.0495 10.7267 12.0604 10.7449 12.0604 10.7487C12.0604 10.7677 12.1314 10.8641 12.1397 10.8566C12.1452 10.8517 12.1458 10.8542 12.1412 10.8622C12.133 10.8765 12.169 10.952 12.2017 10.9888C12.2111 10.9994 12.2188 11.0111 12.2188 11.0149C12.2188 11.0244 12.3873 11.3282 12.4133 11.3655C12.4618 11.435 12.7187 11.9156 12.7163 11.9324C12.7159 11.9357 12.7195 11.9643 12.7244 11.9961C12.7381 12.0844 12.7315 12.2233 12.7119 12.255C12.7079 12.2615 12.7025 12.2776 12.7 12.2908C12.6974 12.3039 12.6859 12.3347 12.6743 12.3592C12.6627 12.3836 12.6532 12.4112 12.6532 12.4205C12.6532 12.4298 12.6489 12.4374 12.6439 12.4374C12.6387 12.4374 12.6308 12.4498 12.6263 12.4648C12.6181 12.4921 12.5611 12.6277 12.5271 12.7014C12.5172 12.7227 12.5077 12.7473 12.5059 12.7562C12.504 12.7652 12.4924 12.7943 12.4801 12.8212C12.4678 12.8479 12.4567 12.874 12.4554 12.879C12.4543 12.884 12.4519 12.8923 12.4502 12.8973C12.4487 12.9023 12.4479 12.9106 12.4487 12.9156C12.4495 12.9206 12.4451 12.9247 12.4389 12.9247C12.4327 12.9247 12.4215 12.9433 12.414 12.9662C12.4065 12.989 12.3726 13.0698 12.3387 13.1458C12.3047 13.2218 12.2741 13.2964 12.2707 13.3117C12.2673 13.3268 12.2597 13.3422 12.2538 13.3459C12.2479 13.3495 12.2431 13.3599 12.2431 13.369C12.2431 13.3781 12.2312 13.4121 12.2167 13.4445C12.2023 13.4768 12.1913 13.5075 12.1924 13.5125C12.1935 13.5175 12.1889 13.5216 12.1822 13.5216C12.1755 13.5216 12.1712 13.5257 12.1726 13.5307C12.1766 13.545 12.0727 13.7498 12.0533 13.766C12.0438 13.7739 12.0359 13.7866 12.0357 13.7941C12.0354 13.8017 11.9971 13.8432 11.9504 13.8863C11.9005 13.9323 11.8655 13.9746 11.8655 13.9887C11.8655 14.0019 11.8872 14.0415 11.9138 14.0767C11.9723 14.1543 12.0309 14.1844 12.2418 14.2451C12.3828 14.2857 12.4488 14.314 12.4511 14.335C12.4516 14.3399 12.4539 14.3533 12.4561 14.3649C12.4626 14.3988 12.3982 14.4753 12.3335 14.5104C12.2276 14.5679 12.0788 14.5814 11.5502 14.5814H11.0858L11.0861 14.5479C11.087 14.46 11.1528 14.1536 11.2359 13.8505C11.2864 13.6662 11.3532 13.3976 11.3844 13.2536C11.4834 12.7954 11.4903 12.7763 11.6705 12.4618C11.7224 12.3713 11.7792 12.2687 11.7969 12.2337L11.829 12.17L11.7781 12.144C11.7501 12.1297 11.6974 12.09 11.6611 12.0556C11.5705 11.9698 11.3223 11.6233 11.1058 11.2799C11.0591 11.2057 11.0176 11.1735 10.985 11.1861C10.9605 11.1954 10.8758 11.3267 10.8848 11.3412C10.889 11.3478 10.8871 11.3532 10.8808 11.3532C10.8691 11.3532 10.824 11.4492 10.8279 11.466C10.8291 11.471 10.8236 11.4751 10.8158 11.4751C10.808 11.4751 10.805 11.4785 10.8092 11.4827C10.8133 11.4868 10.8031 11.5172 10.7864 11.5501C10.7697 11.5831 10.7598 11.6161 10.7645 11.6236C10.7696 11.6319 10.7673 11.6338 10.7587 11.6285C10.7504 11.6234 10.7416 11.6289 10.7372 11.6418C10.7332 11.6539 10.7214 11.6831 10.7109 11.7066C10.7005 11.73 10.6933 11.7513 10.6951 11.7539C10.6967 11.7565 10.6933 11.762 10.6875 11.766C10.6816 11.7702 10.6616 11.8092 10.6431 11.8527C10.6245 11.8963 10.6011 11.947 10.5911 11.9654C10.581 11.9838 10.5755 11.9989 10.5787 11.9989C10.582 11.9989 10.5601 12.0496 10.5299 12.1116C10.4996 12.1736 10.4677 12.2407 10.4588 12.2608C10.4498 12.2809 10.4242 12.3354 10.4017 12.382C10.3794 12.4285 10.361 12.4706 10.361 12.4755C10.361 12.4803 10.3364 12.5186 10.3062 12.5606C10.2761 12.6026 10.2359 12.6592 10.2171 12.6863C10.1982 12.7135 10.1542 12.766 10.1194 12.8029C10.0204 12.9075 9.89776 13.0593 9.90142 13.0728C9.90335 13.0794 9.8995 13.0816 9.8929 13.0775C9.88639 13.0735 9.87567 13.0803 9.86898 13.0927C9.86238 13.1051 9.83598 13.1368 9.81031 13.1631C9.78464 13.1894 9.74183 13.2378 9.71516 13.2707C9.68848 13.3035 9.66115 13.3363 9.65441 13.3437C9.64767 13.3511 9.62663 13.3764 9.60764 13.3998C9.52385 13.5033 9.49437 13.5387 9.46842 13.5666C9.42593 13.6123 9.29409 13.7665 9.2464 13.8261C9.22295 13.8555 9.18995 13.8935 9.17307 13.9107C9.13355 13.9508 9.08318 14.0324 9.09232 14.0415C9.09619 14.0454 9.09474 14.0575 9.0891 14.0683C9.08345 14.0792 9.07514 14.1401 9.07063 14.2037C9.06612 14.2674 9.05926 14.3579 9.05537 14.4047C9.05148 14.4516 9.04684 14.5092 9.04508 14.5327C9.04331 14.5561 9.04129 14.5792 9.04058 14.5841C9.03989 14.5889 8.87766 14.5944 8.68008 14.5963C8.29184 14.5999 8.30097 14.6015 8.31555 14.5348C8.31944 14.5168 8.36671 14.4137 8.4206 14.3055C8.51253 14.1208 8.51852 14.104 8.51819 14.0314C8.518 13.9888 8.51408 13.9287 8.50948 13.8978C8.50267 13.8519 8.50712 13.8269 8.5334 13.7637C8.55115 13.721 8.56708 13.6806 8.56878 13.6739C8.57048 13.6672 8.60085 13.6045 8.63626 13.5347C8.78522 13.2407 9.1 12.5565 9.09238 12.5432C9.08785 12.5352 9.08856 12.5328 9.09399 12.5377C9.0994 12.5426 9.1249 12.5105 9.15068 12.4664C9.23449 12.323 9.33557 12.2089 9.5056 12.0659C9.55033 12.0283 9.56748 12.0033 9.58094 11.9563C9.60399 11.8758 9.63223 11.6771 9.64848 11.4812C9.6557 11.3941 9.67043 11.2351 9.68115 11.1279C9.69197 11.0207 9.70132 10.916 9.70196 10.8952L9.70324 10.8574L9.78813 10.8549C9.88162 10.8522 9.89785 10.8442 9.91004 10.7955C9.91994 10.7559 10.056 10.4146 10.0815 10.3653C10.0914 10.3462 10.1289 10.2976 10.1649 10.2572C10.2231 10.1921 10.2673 10.1216 10.2749 10.0818C10.2763 10.0742 10.2869 10.0465 10.2983 10.0202C10.3312 9.94418 10.3591 9.83814 10.3474 9.83365C10.3415 9.83145 10.2928 9.80338 10.2392 9.77135C10.1514 9.71881 10.1419 9.70957 10.1433 9.67745C10.1442 9.65782 10.1928 9.50743 10.2514 9.34331C10.31 9.17919 10.3587 9.03663 10.3595 9.0266C10.3603 9.01657 10.3644 9.00557 10.3686 9.00222C10.3788 8.99387 10.4214 8.85386 10.4196 8.83388C10.4189 8.82508 10.4211 8.82068 10.4246 8.8242C10.4281 8.82763 10.4396 8.82183 10.4502 8.81126C10.4656 8.79578 10.4878 8.79324 10.5627 8.79838C10.614 8.80185 10.662 8.80106 10.6693 8.79657C10.6767 8.79205 10.6999 8.74739 10.7211 8.69733C10.7947 8.52315 10.9868 8.14286 11.044 8.05814C11.0756 8.01124 11.1016 7.96625 11.1017 7.95817C11.1019 7.95011 11.1061 7.94599 11.1111 7.94905C11.116 7.95211 11.1432 7.927 11.1715 7.89321C11.2363 7.81579 11.358 7.7284 11.4422 7.69882C11.4777 7.6863 11.564 7.67089 11.6336 7.66458C11.7424 7.65473 11.7635 7.64921 11.7825 7.62586C11.8144 7.58643 11.8102 7.57179 11.7569 7.53652C11.6909 7.49284 11.6782 7.44678 11.6774 7.24806C11.6766 7.09027 11.6781 7.08065 11.7123 7.01052C11.7555 6.92204 11.8657 6.81011 11.9539 6.76497C12.1039 6.68835 12.2117 6.67282 12.3611 6.70632ZM8.62514 8.86688C9.13382 8.87418 9.1428 8.87471 9.13933 8.89865C9.13562 8.92426 9.12308 8.95638 9.08981 9.02563C9.07878 9.04851 9.06966 9.07051 9.06951 9.07438C9.06937 9.07826 9.05345 9.11425 9.03416 9.15446C9.01485 9.19468 8.99478 9.2385 8.98955 9.25197C8.96455 9.31603 8.93804 9.37684 8.9218 9.40729C8.91196 9.42568 8.90729 9.44627 8.91142 9.45296C8.91555 9.45965 8.91355 9.4651 8.90699 9.4651C8.90041 9.4651 8.88851 9.4857 8.88054 9.51078C8.87257 9.53594 8.858 9.5693 8.84818 9.58496C8.83833 9.60062 8.8332 9.61629 8.83675 9.6199C8.84033 9.6235 8.83523 9.63442 8.82544 9.64418C8.81564 9.65395 8.81075 9.66706 8.81456 9.67322C8.81837 9.67938 8.81656 9.6844 8.81055 9.6844C8.80451 9.6844 8.79283 9.69945 8.78457 9.71793C8.75374 9.78666 8.69283 9.86207 8.64086 9.89595C8.51848 9.97559 8.68884 9.96978 6.34212 9.97339C5.1702 9.97524 4.20915 9.97894 4.20645 9.98166C4.20375 9.98431 4.2307 9.99759 4.26633 10.011C4.39384 10.0591 4.70901 10.2086 4.72314 10.2276C4.73652 10.2458 4.73566 10.2584 4.71777 10.3057C4.71396 10.3157 4.71019 10.3266 4.70937 10.33C4.70855 10.3334 4.70141 10.3477 4.69352 10.3619C4.68562 10.3761 4.68262 10.3912 4.68685 10.3954C4.69107 10.3997 4.68814 10.4031 4.68033 10.4031C4.67251 10.4031 4.66611 10.4101 4.66611 10.4188C4.66611 10.4274 4.65575 10.4548 4.6431 10.4797C4.6141 10.5365 4.57727 10.6281 4.58277 10.6296C4.58506 10.6303 4.5794 10.6399 4.57022 10.651C4.56103 10.662 4.55729 10.6711 4.56195 10.6711C4.5666 10.6711 4.56147 10.68 4.55056 10.6909C4.53964 10.7019 4.5336 10.7183 4.53712 10.7275C4.54064 10.7367 4.5379 10.7442 4.53102 10.7442C4.52412 10.7442 4.52188 10.7496 4.52603 10.7563C4.53016 10.7631 4.52867 10.7686 4.52271 10.7686C4.51674 10.7686 4.49122 10.822 4.466 10.8874C4.44075 10.9527 4.40485 11.0363 4.3862 11.0731C4.36755 11.1099 4.3539 11.1497 4.35586 11.1615C4.35783 11.1732 4.3552 11.1802 4.35003 11.1771C4.33863 11.17 4.29108 11.2776 4.28021 11.335C4.27767 11.3484 4.27023 11.3612 4.2637 11.3634C4.25714 11.3657 4.25489 11.3725 4.25867 11.3787C4.26247 11.3848 4.25975 11.3898 4.25266 11.3898C4.24556 11.3898 4.23975 11.4035 4.23975 11.4203C4.23975 11.437 4.23395 11.4507 4.22685 11.4507C4.21977 11.4507 4.21734 11.4562 4.22148 11.4629C4.22563 11.4696 4.22289 11.4751 4.2154 11.4751C4.2079 11.4751 4.20493 11.4802 4.20878 11.4865C4.21264 11.4926 4.21013 11.5012 4.20321 11.5056C4.19629 11.5098 4.19378 11.5184 4.19764 11.5247C4.20149 11.5309 4.19944 11.536 4.19307 11.536C4.18294 11.536 4.16125 11.5951 4.16671 11.6077C4.16784 11.6103 4.16379 11.6158 4.15774 11.6199C4.14581 11.628 4.10622 11.7223 4.09874 11.7605C4.09622 11.7733 4.08717 11.7884 4.07863 11.7938C4.07011 11.7992 4.06791 11.8037 4.07374 11.8038C4.07959 11.8039 4.07827 11.8114 4.07081 11.8203C4.06336 11.8293 4.06007 11.8395 4.06352 11.843C4.06697 11.8464 4.06144 11.8562 4.05123 11.8647C4.04103 11.8731 4.03267 11.8851 4.03267 11.8913C4.03267 11.8975 4.00059 11.9777 3.96137 12.0695C3.88721 12.2432 3.87138 12.281 3.86875 12.2912C3.8679 12.2946 3.85769 12.3152 3.84607 12.3369C3.83446 12.3587 3.82769 12.3765 3.83101 12.3765C3.83436 12.3765 3.82352 12.402 3.80697 12.4332C3.7904 12.4643 3.77685 12.4988 3.77685 12.5099C3.77685 12.521 3.77127 12.5356 3.76447 12.5424C3.75764 12.5492 3.74721 12.5718 3.74126 12.5924L3.73045 12.6302L5.6316 12.6318C6.67723 12.6327 7.53685 12.6358 7.54184 12.639C7.54683 12.6421 7.53705 12.6733 7.52008 12.7085C7.46019 12.8326 7.43359 12.8985 7.44055 12.9055C7.44442 12.9093 7.44118 12.9125 7.43337 12.9125C7.42555 12.9125 7.41916 12.9183 7.41916 12.9254C7.41916 12.9324 7.40868 12.9613 7.39588 12.9893C7.38308 13.0174 7.35526 13.0843 7.33406 13.1379C7.31286 13.1915 7.29045 13.2406 7.28425 13.2469C7.27804 13.2532 7.27288 13.267 7.27275 13.2774C7.27263 13.2877 7.25377 13.3332 7.23085 13.3785C7.20794 13.4237 7.192 13.4607 7.19542 13.4607C7.19885 13.4607 7.19029 13.4752 7.17641 13.4928C7.16253 13.5105 7.15103 13.531 7.15086 13.5384C7.15047 13.5559 7.06623 13.6453 7.02121 13.6762C6.93227 13.7371 7.0133 13.7348 4.95847 13.7348C3.09277 13.7348 3.03718 13.7341 2.94241 13.7108C2.88881 13.6977 2.83948 13.6867 2.83278 13.6865C2.82608 13.6862 2.81413 13.6806 2.80621 13.6739C2.79829 13.6672 2.75722 13.6425 2.71491 13.6191C2.61525 13.5638 2.47896 13.4279 2.41538 13.3204C2.32014 13.1593 2.26655 12.9361 2.29086 12.802C2.30945 12.6995 2.35645 12.5528 2.40903 12.4332C2.43256 12.3797 2.45284 12.3299 2.45408 12.3226C2.45531 12.3154 2.46234 12.2985 2.46968 12.2852C2.48738 12.2529 2.59726 11.9962 2.60004 11.9806C2.60125 11.9739 2.61669 11.9383 2.63438 11.9015C2.72699 11.7085 3.11864 10.7654 3.11141 10.7528C3.10675 10.7447 3.1076 10.7423 3.11329 10.7475C3.11896 10.7526 3.2044 10.5676 3.30312 10.3362C3.54838 9.7614 3.58785 9.68669 3.75423 9.48182C4.00219 9.17647 4.41262 8.94731 4.80734 8.89381C4.85362 8.88756 5.14637 8.87858 5.45792 8.87392C5.76946 8.86934 6.02666 8.86336 6.02944 8.86081C6.03703 8.85368 8.03027 8.85835 8.62514 8.86688ZM20.8859 8.9129C20.8859 8.9408 20.8807 8.96271 20.8743 8.96157C20.8679 8.96051 20.8622 8.96509 20.8616 8.97178C20.8609 8.97846 20.8476 9.01111 20.8321 9.04429C20.8165 9.07755 20.8029 9.11126 20.8017 9.11918C20.8006 9.12718 20.7927 9.14206 20.7842 9.15226C20.7758 9.16247 20.768 9.18218 20.767 9.19618C20.7659 9.21008 20.7621 9.22152 20.7584 9.22152C20.7507 9.22152 20.7392 9.24678 20.6743 9.40641C20.648 9.47126 20.6295 9.52741 20.6333 9.53128C20.6371 9.53506 20.6345 9.53823 20.6273 9.53823C20.616 9.53823 20.5972 9.58619 20.6005 9.60687C20.6012 9.6111 20.5957 9.6184 20.5882 9.62298C20.5808 9.62764 20.5727 9.64207 20.5701 9.65518C20.5634 9.68986 20.4747 9.81842 20.4273 9.86207C20.3455 9.9374 20.3022 9.95324 20.1437 9.96582C20.0549 9.97295 19.128 9.97621 17.801 9.9741C16.5933 9.97216 15.6052 9.97506 15.6052 9.98043C15.6052 9.98589 15.6367 10.0042 15.6752 10.0211C15.9688 10.1504 16.077 10.2025 16.0951 10.2228C16.1148 10.245 16.1145 10.2497 16.0907 10.3095C16.0768 10.3442 16.0644 10.3795 16.0631 10.388C16.0617 10.3964 16.054 10.4099 16.046 10.4179C16.038 10.4258 16.0315 10.4371 16.0315 10.4429C16.0315 10.4487 16.0171 10.4846 15.9995 10.5227C15.9818 10.5607 15.9672 10.5988 15.9669 10.6072C15.9667 10.6155 15.9611 10.6224 15.9544 10.6224C15.9478 10.6224 15.9456 10.6257 15.9497 10.6298C15.9537 10.6339 15.9464 10.6572 15.9333 10.6816L15.9095 10.7259L17.4476 10.732C18.8134 10.7374 18.9917 10.7403 19.0404 10.7576C19.1161 10.7844 19.228 10.8327 19.2353 10.8418C19.2387 10.8459 19.2667 10.8666 19.2977 10.8876C19.3459 10.9204 19.3985 10.9706 19.4789 11.0608C19.4996 11.0839 19.5061 11.0948 19.5685 11.2104C19.593 11.2558 19.613 11.298 19.613 11.304C19.613 11.3134 19.6182 11.3295 19.6368 11.3776C19.6707 11.4655 19.6762 11.6832 19.6471 11.7858C19.6318 11.8392 19.627 11.8572 19.6215 11.8801C19.6195 11.8885 19.6092 11.9145 19.5987 11.938C19.5881 11.9614 19.5618 12.0245 19.5402 12.0781C19.5186 12.1317 19.4877 12.2016 19.4716 12.2334C19.4555 12.2652 19.4452 12.2912 19.4488 12.2912C19.4523 12.2912 19.4415 12.3168 19.4249 12.3481C19.4084 12.3793 19.3975 12.4094 19.401 12.415C19.4045 12.4207 19.4012 12.4252 19.3937 12.4252C19.3862 12.4252 19.3834 12.4307 19.3876 12.4374C19.3918 12.4442 19.389 12.4496 19.3815 12.4496C19.374 12.4496 19.371 12.4547 19.3749 12.461C19.3787 12.4672 19.3764 12.4758 19.3695 12.48C19.3627 12.4841 19.3571 12.4982 19.3571 12.5112C19.3571 12.5242 19.3516 12.5349 19.3449 12.5349C19.3382 12.5349 19.3328 12.5418 19.3328 12.5503C19.3328 12.5587 19.3218 12.5862 19.3083 12.6112C19.295 12.6362 19.2878 12.6567 19.2926 12.6567C19.2973 12.6567 19.295 12.6628 19.2874 12.6703C19.2799 12.6779 19.277 12.6925 19.2809 12.7028C19.2851 12.7134 19.283 12.7184 19.2763 12.7142C19.2665 12.7082 19.1943 12.8403 19.1847 12.8821C19.1831 12.8887 19.1719 12.9048 19.1598 12.9179C19.1477 12.9308 19.1378 12.9474 19.1378 12.9546C19.1378 12.9617 19.1256 12.9813 19.1104 12.998C19.0954 13.0148 19.0611 13.0558 19.0344 13.0892C19.0075 13.1226 18.9582 13.1793 18.9247 13.2153C18.8912 13.2513 18.8653 13.286 18.8672 13.2924C18.869 13.2988 18.8649 13.3007 18.8579 13.2964C18.851 13.2921 18.8368 13.2971 18.8265 13.3074C18.8161 13.3178 18.7737 13.3522 18.7321 13.3838C18.6906 13.4154 18.6539 13.4443 18.6506 13.4479C18.6197 13.4816 18.3809 13.5966 18.2425 13.6443C17.967 13.7393 18.1298 13.7335 15.5642 13.7378L13.2758 13.7415L13.284 13.7086C13.2885 13.6904 13.3389 13.5683 13.396 13.4372C13.4531 13.306 13.5306 13.1281 13.5682 13.0417C13.6772 12.7912 13.7351 12.7158 13.8635 12.6576C13.9176 12.6331 13.9353 12.6328 15.8793 12.6325C16.958 12.6323 17.8693 12.6287 17.9045 12.6245C17.9429 12.6198 17.9685 12.6108 17.9685 12.6018C17.9685 12.5935 17.9789 12.5627 17.9917 12.5334C18.0046 12.5041 18.017 12.4691 18.0191 12.4557C18.0214 12.4423 18.0267 12.4286 18.0309 12.4252C18.0389 12.4188 18.1643 12.1356 18.1684 12.1146C18.1697 12.1079 18.1802 12.0847 18.1917 12.063C18.2031 12.0413 18.2127 12.0208 18.2127 12.0175C18.2128 12.0141 18.2233 11.9869 18.2361 11.9569C18.249 11.927 18.2612 11.8927 18.2632 11.8806C18.2667 11.8598 18.1985 11.8585 16.732 11.852C15.6919 11.8474 15.1833 11.8411 15.1545 11.8322C14.8594 11.7418 14.6439 11.534 14.5524 11.2519C14.4762 11.0171 14.4911 10.8779 14.6266 10.5589C14.6586 10.4833 14.6853 10.4187 14.6857 10.4152C14.6861 10.4119 14.699 10.3818 14.7143 10.3483C14.7295 10.3147 14.7669 10.2271 14.7972 10.1534C14.9952 9.67296 15.1741 9.41723 15.459 9.2077C15.6464 9.06998 15.9491 8.94062 16.1838 8.89821C16.3739 8.86389 16.7157 8.85896 18.8273 8.86054L20.8859 8.86213V8.9129Z" fill="#4B72FF"/>
</g>
</g>
<defs>
<clipPath id="clip0_19_2882">
<rect x="0.5" width="22" height="22" rx="5" fill="white"/>
</clipPath>
</defs>
</svg>
