<svg width="24" height="24" viewBox="0 0 24 24" fill="none" xmlns="http://www.w3.org/2000/svg">
<path fill-rule="evenodd" clip-rule="evenodd" d="M5.70708 5.70711C6.0976 5.31658 6.78582 5.37164 7.24427 5.83008L18.312 16.8978C18.7705 17.3563 18.8255 18.0445 18.435 18.435C18.0445 18.8256 17.3563 18.7705 16.8978 18.3121L5.83005 7.2443C5.37161 6.78585 5.31655 6.09763 5.70708 5.70711Z" fill="#EEF2FF"/>
<path fill-rule="evenodd" clip-rule="evenodd" d="M5.7072 18.4355C6.09772 18.826 6.78595 18.7709 7.24439 18.3125L18.3121 7.24474C18.7706 6.7863 18.8256 6.09807 18.4351 5.70755C18.0446 5.31703 17.3564 5.37208 16.8979 5.83053L5.83017 16.8983C5.37173 17.3567 5.31668 18.0449 5.7072 18.4355Z" fill="#EEF2FF"/>
</svg>
