<svg width="128" height="24" viewBox="0 0 128 24" fill="none" xmlns="http://www.w3.org/2000/svg">
<path d="M44.1003 18.8571C45.1224 18.8571 45.9478 18.6381 46.5767 18.2006C47.2154 17.7629 47.5349 17.2424 47.5349 16.6395C47.5349 16.0364 47.2696 15.5598 46.7389 15.2096C46.2083 14.8595 45.5696 14.5484 44.8228 14.276C44.0759 14.0036 43.5059 13.7994 43.1128 13.6632C42.7197 13.5173 42.3856 13.386 42.1104 13.2693C41.8451 13.1526 41.4275 12.9532 40.8576 12.6711C40.2876 12.3891 39.6439 11.8347 38.9266 11.0079C38.2094 10.1812 37.8506 9.16479 37.8506 7.95871C37.8506 6.32471 38.509 4.78309 39.8259 3.33387C41.1525 1.87492 43.5255 1.14546 46.9452 1.14546C48.7927 1.14546 50.3256 1.48101 51.5441 2.15212C52.7628 2.81352 53.8534 3.73265 54.8166 4.90952L51.0135 7.76906C49.8441 6.03779 48.1833 5.17213 46.0313 5.17213C45.0291 5.17213 44.2674 5.39584 43.7465 5.84325C43.2356 6.29066 42.9801 6.73807 42.9801 7.18548C42.9801 7.63289 43.1471 7.9879 43.4813 8.25051C43.8154 8.51312 44.2331 8.75141 44.7343 8.9654C45.2355 9.17938 45.7956 9.40794 46.4146 9.6511C47.0434 9.89425 47.4857 10.0742 47.7413 10.1909C48.0065 10.3076 48.3946 10.4827 48.9058 10.7161C49.4266 10.9496 49.8 11.1441 50.026 11.2997C50.2617 11.4553 50.5665 11.6693 50.9399 11.9417C51.3133 12.214 51.5786 12.4766 51.7358 12.7295C51.8931 12.9726 52.1092 13.3228 52.3844 13.7799C52.6596 14.2371 52.7971 14.9616 52.7971 15.9537C52.7971 17.9671 51.9766 19.6448 50.3355 20.9871C48.7042 22.3196 46.5621 22.9858 43.9089 22.9858C41.914 22.9858 40.0419 22.6211 38.2929 21.8917C36.5437 21.1621 35.2464 20.0728 34.4014 18.6236C35.6986 17.7191 37.0595 16.7513 38.4844 15.7202C39.9094 17.8116 41.7812 18.8571 44.1003 18.8571ZM56.0365 22.5628C57.2845 17.5199 58.6349 12.1482 60.0876 6.44722C58.5123 6.82187 57.0492 7.05984 55.6988 7.1611C55.8624 5.50043 55.9751 4.25494 56.0365 3.42461C59.2796 3.02969 61.5302 2.24493 62.7886 1.07031H66.3489C65.1519 5.85991 63.3616 13.0241 60.9778 22.5628H56.0365ZM74.8325 6.4852C76.6996 6.4852 78.144 7.14657 79.1661 8.46936C80.1881 9.78241 80.699 11.3532 80.699 13.1817C80.699 15.7106 79.8639 17.9671 78.1932 19.9512C76.5228 21.9355 74.4983 22.9274 72.1203 22.9274C71.1376 22.9274 70.2237 22.7281 69.3786 22.3293C68.5336 21.9306 67.8752 21.342 67.4036 20.5639L66.8728 22.5628H62.3035C64.2688 14.4704 66.0425 7.32165 67.6246 1.11628H72.2678C71.8354 2.94482 71.2408 5.3229 70.4842 8.25051C71.9779 7.07363 73.4273 6.4852 74.8325 6.4852ZM71.516 19.2509C72.7247 19.2509 73.7664 18.648 74.6408 17.442C75.5154 16.2357 75.9527 14.8449 75.9527 13.2693C75.9527 12.1702 75.6432 11.3727 75.0242 10.8766C74.4148 10.3806 73.7468 10.1325 73.0196 10.1325C71.7519 10.1325 70.6759 10.7648 69.7913 12.0292C68.907 13.2936 68.4647 14.5287 68.4647 15.735C68.4647 16.941 68.7792 17.831 69.4082 18.4048C70.0469 18.9689 70.7495 19.2509 71.516 19.2509ZM94.0406 1.55397C96.3106 1.55397 97.9811 2.04028 99.0524 3.01291C100.133 3.9758 100.674 5.16728 100.674 6.58732C100.674 8.00736 100.241 9.1502 99.3766 10.0158C98.5119 10.8717 97.4555 11.4407 96.2075 11.7228C97.2295 12.1799 98.0303 12.7441 98.6101 13.4152C99.1998 14.0767 99.4944 14.9763 99.4944 16.1142C99.4944 17.2522 99.2438 18.2442 98.7428 19.0904C98.2416 19.9268 97.3621 20.7148 96.1043 21.454C94.8465 22.1932 93.1513 22.5628 91.0189 22.5628H79.8755C80.4553 20.2285 81.3297 16.7269 82.4991 12.0584C83.6686 7.38974 84.548 3.88827 85.1377 1.55397H94.0406ZM93.0973 5.5077H88.9996C88.4296 7.79338 88.0562 9.27663 87.8794 9.95747H92.1981C94.5763 9.91856 95.7602 9.06267 95.7505 7.38974C95.7505 6.13504 94.8662 5.5077 93.0973 5.5077ZM90.7832 18.6236C91.7657 18.6236 92.6011 18.3222 93.289 17.7191C93.9866 17.1063 94.3354 16.3184 94.3354 15.3555C94.0898 14.3439 93.2054 13.8188 91.6822 13.7799H86.9065L85.742 18.6236H90.7832ZM107.412 22.9567C104.975 22.9567 103.108 22.2758 101.81 20.9141C100.513 19.5427 99.8647 17.8116 99.8647 15.7202C99.8647 14.2905 100.199 12.8851 100.867 11.504C101.545 10.1131 102.611 8.92649 104.066 7.94414C105.52 6.95205 107.22 6.45602 109.166 6.45602C111.112 6.45602 112.728 7.03958 114.015 8.20675C115.303 9.3739 115.946 11.0031 115.946 13.0942C115.946 13.9307 115.799 14.8742 115.504 15.9245H104.302C104.38 18.22 105.496 19.3677 107.648 19.3677C108.208 19.3677 108.733 19.2703 109.225 19.0759C109.726 18.8717 110.104 18.6674 110.36 18.4632C110.625 18.2491 110.949 17.9526 111.333 17.5731C111.667 17.8261 112.674 18.5215 114.354 19.6594C112.939 21.2741 111.652 22.2271 110.492 22.519C109.343 22.8108 108.316 22.9567 107.412 22.9567ZM108.827 9.9283C106.979 9.9283 105.643 10.9739 104.817 13.065H111.627C111.686 12.89 111.721 12.6808 111.731 12.4377C111.731 11.7374 111.495 11.1441 111.023 10.6578C110.561 10.1715 109.829 9.9283 108.827 9.9283ZM123.244 22.3585C122.242 22.6504 121.181 22.7963 120.061 22.7963C118.94 22.7963 117.992 22.5239 117.216 21.9791C116.439 21.4345 116.051 20.6225 116.051 19.5427C116.051 18.8035 116.39 17.189 117.068 14.699C117.756 12.2091 118.144 10.6967 118.233 10.1617H116.199C116.602 8.4888 116.887 7.37515 117.054 6.82075H119.043C119.584 4.72959 119.938 3.33387 120.105 2.63357H124.748C124.63 3.09072 124.453 3.78615 124.217 4.71987C123.991 5.64387 123.814 6.34415 123.687 6.82075H126.944C126.787 7.37515 126.507 8.4888 126.104 10.1617H122.846C122.119 13.0699 121.574 15.2632 121.21 16.7416C120.788 18.2006 121.23 18.9251 122.537 18.9155C122.999 18.9155 123.544 18.8279 124.173 18.6529C123.947 19.4893 123.637 20.7246 123.244 22.3585Z" fill="#59627E"/>
<path fill-rule="evenodd" clip-rule="evenodd" d="M17.5867 3.72e-07L8.95126 0C4.00762 0 0 3.94956 0 8.82162C0 13.5393 3.75783 17.3922 8.48454 17.6314L4.60727 24H10.6625L13.5059 19.3297L17.3759 12.973H11.4524H11.3207H8.95126C6.62483 12.973 4.7389 11.1143 4.7389 8.82162C4.7389 6.52889 6.62483 4.67027 8.95126 4.67027H16.7704L12.9003 11.027H18.824H18.9557H21.3251C23.6514 11.027 25.5374 12.8857 25.5374 15.1783C25.5374 17.4711 23.6514 19.3297 21.3251 19.3297H15.5331L12.6897 24H21.3251C26.2686 24 30.2763 20.0503 30.2763 15.1783C30.2763 10.4606 26.5184 6.60781 21.7917 6.36855L25.6691 1.58257e-06L19.6138 1.06086e-06L16.7704 4.67027H14.7432L17.5867 3.72e-07Z" fill="#59627E"/>
</svg>
