<svg width="17" height="19" viewBox="0 0 17 19" fill="none" xmlns="http://www.w3.org/2000/svg">
<path fill-rule="evenodd" clip-rule="evenodd" d="M16.5 7.47114V14.6363C16.5 16.6781 14.8584 18.3333 12.8333 18.3333H3.66667C1.64162 18.3333 0 16.6781 0 14.6363V7.47114C0 6.36109 0.494675 5.30979 1.34737 4.60765L5.9307 0.833569C7.28044 -0.277855 9.21955 -0.277857 10.5693 0.833567L15.1526 4.60765C16.0053 5.30979 16.5 6.36109 16.5 7.47114ZM6.41667 13.9792C6.03697 13.9792 5.72917 14.287 5.72917 14.6667C5.72917 15.0464 6.03697 15.3542 6.41667 15.3542H10.0833C10.463 15.3542 10.7708 15.0464 10.7708 14.6667C10.7708 14.287 10.463 13.9792 10.0833 13.9792H6.41667Z" fill="#59627E"/>
</svg>
