<svg width="128" height="24" viewBox="0 0 128 24" fill="none" xmlns="http://www.w3.org/2000/svg">
<path d="M44.1004 18.8571C45.1225 18.8571 45.9479 18.6381 46.5769 18.2006C47.2156 17.7629 47.535 17.2424 47.535 16.6395C47.535 16.0364 47.2697 15.5598 46.739 15.2096C46.2084 14.8595 45.5697 14.5484 44.8229 14.276C44.076 14.0036 43.506 13.7994 43.1129 13.6632C42.7199 13.5173 42.3857 13.386 42.1105 13.2693C41.8453 13.1526 41.4276 12.9532 40.8577 12.6711C40.2877 12.3891 39.644 11.8347 38.9268 11.0079C38.2095 10.1812 37.8507 9.16479 37.8507 7.95871C37.8507 6.32471 38.5091 4.78309 39.826 3.33387C41.1526 1.87492 43.5256 1.14546 46.9453 1.14546C48.7928 1.14546 50.3257 1.48101 51.5442 2.15212C52.7629 2.81352 53.8536 3.73265 54.8167 4.90952L51.0136 7.76906C49.8442 6.03779 48.1834 5.17213 46.0314 5.17213C45.0292 5.17213 44.2675 5.39584 43.7467 5.84325C43.2357 6.29066 42.9802 6.73807 42.9802 7.18548C42.9802 7.63289 43.1473 7.9879 43.4814 8.25051C43.8155 8.51312 44.2332 8.75141 44.7344 8.9654C45.2356 9.17938 45.7957 9.40794 46.4148 9.6511C47.0435 9.89425 47.4858 10.0742 47.7414 10.1909C48.0067 10.3076 48.3948 10.4827 48.9059 10.7161C49.4267 10.9496 49.8001 11.1441 50.0261 11.2997C50.2618 11.4553 50.5666 11.6693 50.94 11.9417C51.3135 12.214 51.5787 12.4766 51.7359 12.7295C51.8932 12.9726 52.1093 13.3228 52.3845 13.7799C52.6597 14.2371 52.7972 14.9616 52.7972 15.9537C52.7972 17.9671 51.9768 19.6448 50.3357 20.9871C48.7043 22.3196 46.5622 22.9858 43.909 22.9858C41.9141 22.9858 40.042 22.6211 38.293 21.8917C36.5438 21.1621 35.2465 20.0728 34.4015 18.6236C35.6987 17.7191 37.0597 16.7513 38.4845 15.7202C39.9095 17.8116 41.7814 18.8571 44.1004 18.8571ZM56.0366 22.5628C57.2846 17.5199 58.635 12.1482 60.0877 6.44722C58.5124 6.82187 57.0493 7.05984 55.6989 7.1611C55.8625 5.50043 55.9752 4.25494 56.0366 3.42461C59.2797 3.02969 61.5304 2.24493 62.7887 1.07031H66.349C65.1521 5.85991 63.3617 13.0241 60.9779 22.5628H56.0366ZM74.8326 6.4852C76.6997 6.4852 78.1442 7.14657 79.1662 8.46936C80.1882 9.78241 80.6992 11.3532 80.6992 13.1817C80.6992 15.7106 79.864 17.9671 78.1934 19.9512C76.5229 21.9355 74.4985 22.9274 72.1205 22.9274C71.1377 22.9274 70.2238 22.7281 69.3788 22.3293C68.5337 21.9306 67.8754 21.342 67.4037 20.5639L66.873 22.5628H62.3037C64.269 14.4704 66.0426 7.32165 67.6248 1.11628H72.2679C71.8355 2.94482 71.2409 5.3229 70.4843 8.25051C71.978 7.07363 73.4274 6.4852 74.8326 6.4852ZM71.5161 19.2509C72.7248 19.2509 73.7665 18.648 74.6409 17.442C75.5156 16.2357 75.9529 14.8449 75.9529 13.2693C75.9529 12.1702 75.6433 11.3727 75.0243 10.8766C74.4149 10.3806 73.7469 10.1325 73.0197 10.1325C71.752 10.1325 70.676 10.7648 69.7915 12.0292C68.9071 13.2936 68.4649 14.5287 68.4649 15.735C68.4649 16.941 68.7793 17.831 69.4083 18.4048C70.047 18.9689 70.7496 19.2509 71.5161 19.2509ZM94.0407 1.55397C96.3108 1.55397 97.9812 2.04028 99.0525 3.01291C100.133 3.9758 100.674 5.16728 100.674 6.58732C100.674 8.00736 100.241 9.1502 99.3767 10.0158C98.512 10.8717 97.4556 11.4407 96.2076 11.7228C97.2296 12.1799 98.0304 12.7441 98.6102 13.4152C99.1999 14.0767 99.4945 14.9763 99.4945 16.1142C99.4945 17.2522 99.2439 18.2442 98.743 19.0904C98.2418 19.9268 97.3622 20.7148 96.1044 21.454C94.8467 22.1932 93.1514 22.5628 91.019 22.5628H79.8756C80.4554 20.2285 81.3298 16.7269 82.4993 12.0584C83.6687 7.38974 84.5481 3.88827 85.1378 1.55397H94.0407ZM93.0974 5.5077H88.9997C88.4297 7.79338 88.0563 9.27663 87.8795 9.95747H92.1982C94.5764 9.91856 95.7604 9.06267 95.7506 7.38974C95.7506 6.13504 94.8663 5.5077 93.0974 5.5077ZM90.7833 18.6236C91.7659 18.6236 92.6012 18.3222 93.2891 17.7191C93.9867 17.1063 94.3355 16.3184 94.3355 15.3555C94.0899 14.3439 93.2056 13.8188 91.6823 13.7799H86.9067L85.7422 18.6236H90.7833ZM107.412 22.9567C104.975 22.9567 103.108 22.2758 101.811 20.9141C100.513 19.5427 99.8649 17.8116 99.8649 15.7202C99.8649 14.2905 100.199 12.8851 100.867 11.504C101.545 10.1131 102.612 8.92649 104.066 7.94414C105.52 6.95205 107.22 6.45602 109.166 6.45602C111.112 6.45602 112.728 7.03958 114.015 8.20675C115.303 9.3739 115.946 11.0031 115.946 13.0942C115.946 13.9307 115.799 14.8742 115.504 15.9245H104.302C104.38 18.22 105.496 19.3677 107.648 19.3677C108.208 19.3677 108.733 19.2703 109.225 19.0759C109.726 18.8717 110.104 18.6674 110.36 18.4632C110.625 18.2491 110.95 17.9526 111.333 17.5731C111.667 17.8261 112.674 18.5215 114.354 19.6594C112.939 21.2741 111.652 22.2271 110.493 22.519C109.343 22.8108 108.316 22.9567 107.412 22.9567ZM108.827 9.9283C106.979 9.9283 105.643 10.9739 104.818 13.065H111.628C111.686 12.89 111.721 12.6808 111.731 12.4377C111.731 11.7374 111.495 11.1441 111.023 10.6578C110.561 10.1715 109.829 9.9283 108.827 9.9283ZM123.244 22.3585C122.242 22.6504 121.181 22.7963 120.061 22.7963C118.94 22.7963 117.992 22.5239 117.216 21.9791C116.439 21.4345 116.051 20.6225 116.051 19.5427C116.051 18.8035 116.39 17.189 117.068 14.699C117.756 12.2091 118.144 10.6967 118.233 10.1617H116.199C116.602 8.4888 116.887 7.37515 117.054 6.82075H119.044C119.584 4.72959 119.938 3.33387 120.105 2.63357H124.748C124.63 3.09072 124.453 3.78615 124.217 4.71987C123.991 5.64387 123.814 6.34415 123.687 6.82075H126.944C126.787 7.37515 126.507 8.4888 126.104 10.1617H122.846C122.119 13.0699 121.574 15.2632 121.21 16.7416C120.788 18.2006 121.23 18.9251 122.537 18.9155C122.999 18.9155 123.544 18.8279 124.173 18.6529C123.947 19.4893 123.638 20.7246 123.244 22.3585Z" fill="#59627E"/>
<path fill-rule="evenodd" clip-rule="evenodd" d="M17.5867 3.72e-07L8.95126 0C4.00762 0 0 3.94956 0 8.82162C0 13.5393 3.75783 17.3922 8.48454 17.6314L4.60727 24H10.6625L13.5059 19.3297L17.3759 12.973H11.4524H11.3207H8.95126C6.62483 12.973 4.7389 11.1143 4.7389 8.82162C4.7389 6.52889 6.62483 4.67027 8.95126 4.67027H16.7704L12.9003 11.027H18.824H18.9557H21.3251C23.6514 11.027 25.5374 12.8857 25.5374 15.1783C25.5374 17.4711 23.6514 19.3297 21.3251 19.3297H15.5331L12.6897 24H21.3251C26.2686 24 30.2763 20.0503 30.2763 15.1783C30.2763 10.4606 26.5184 6.60781 21.7917 6.36855L25.6691 1.58257e-06L19.6138 1.06086e-06L16.7704 4.67027H14.7432L17.5867 3.72e-07Z" fill="#59627E"/>
</svg>
