<svg width="24" height="24" viewBox="0 0 24 24" fill="none" xmlns="http://www.w3.org/2000/svg">
<path fill-rule="evenodd" clip-rule="evenodd" d="M3 6C3 5.44772 3.52558 5 4.17391 5H19.8261C20.4744 5 21 5.44772 21 6C21 6.55228 20.4744 7 19.8261 7H4.17391C3.52558 7 3 6.55228 3 6Z" fill="#EEF2FF"/>
<path fill-rule="evenodd" clip-rule="evenodd" d="M3 12C3 11.4477 3.52558 11 4.17391 11H19.8261C20.4744 11 21 11.4477 21 12C21 12.5523 20.4744 13 19.8261 13H4.17391C3.52558 13 3 12.5523 3 12Z" fill="#EEF2FF"/>
<path fill-rule="evenodd" clip-rule="evenodd" d="M3 18C3 17.4477 3.52558 17 4.17391 17H19.8261C20.4744 17 21 17.4477 21 18C21 18.5523 20.4744 19 19.8261 19H4.17391C3.52558 19 3 18.5523 3 18Z" fill="#EEF2FF"/>
</svg>
