<svg width="20" height="19" viewBox="0 0 20 19" fill="none" xmlns="http://www.w3.org/2000/svg">
<path d="M17.1875 11C18.1999 11 19.0203 11.8206 19.0205 12.833V16.5C19.0205 17.5125 18.2 18.333 17.1875 18.333H11.6875C10.675 18.333 9.85451 17.5125 9.85451 16.5V12.833C9.8547 11.8207 10.6751 11 11.6875 11H17.1875ZM1.65529 12.3477C1.92378 12.0792 2.35849 12.0792 2.62697 12.3477C2.89542 12.6161 2.89545 13.0509 2.62697 13.3193L1.96779 13.9795H6.18752C6.56722 13.9795 6.87502 14.2873 6.87502 14.667C6.87486 15.0465 6.56712 15.3545 6.18752 15.3545H1.96779L2.62697 16.0137C2.89546 16.2822 2.89546 16.7178 2.62697 16.9863C2.35853 17.2545 1.92371 17.2545 1.65529 16.9863L0.469748 15.8008C-0.156521 15.1743 -0.156644 14.1586 0.469748 13.5322L1.65529 12.3477ZM8.02053 0C9.03294 0 9.85433 0.820645 9.85451 1.83301V5.5C9.85451 6.51252 9.03305 7.33301 8.02053 7.33301H2.52053C1.50818 7.33281 0.687521 6.5124 0.687521 5.5V1.83301C0.687709 0.820767 1.50829 0.000197848 2.52053 0H8.02053ZM17.0811 1.34766C17.3496 1.07917 17.7852 1.07917 18.0537 1.34766L19.2383 2.53223C19.8648 3.15869 19.8648 4.17432 19.2383 4.80078L18.0537 5.98633C17.7853 6.25479 17.3496 6.25475 17.0811 5.98633C16.8126 5.71784 16.8126 5.28216 17.0811 5.01367L17.7412 4.35449H13.5205C13.1411 4.35429 12.8332 4.04643 12.833 3.66699C12.833 3.28742 13.141 2.97969 13.5205 2.97949H17.7412L17.0811 2.31934C16.8128 2.05092 16.8129 1.61613 17.0811 1.34766Z" fill="#59627E"/>
</svg>
