<svg width="164" height="135" viewBox="0 0 164 135" fill="none" xmlns="http://www.w3.org/2000/svg">
<path fill-rule="evenodd" clip-rule="evenodd" d="M105.52 2.232e-06L53.7076 0C24.0457 0 0 23.6974 0 52.9297C0 81.2359 22.547 104.353 50.9072 105.788L27.6436 144H63.9752L81.0355 115.978L104.256 77.8378H68.7141H67.9242H53.7076C39.749 77.8378 28.4334 66.6861 28.4334 52.9297C28.4334 39.1733 39.749 28.0216 53.7076 28.0216H100.622L77.402 66.1622H112.944H113.734H127.951C141.909 66.1622 153.224 77.3139 153.224 91.0701C153.224 104.826 141.909 115.978 127.951 115.978H93.1985L76.1384 144H127.951C157.612 144 181.658 120.302 181.658 91.0701C181.658 62.7637 159.111 39.6469 130.75 38.2113L154.015 9.49541e-06L117.683 6.36519e-06L100.622 28.0216H88.4594L105.52 2.232e-06Z" fill="url(#paint0_linear_116_4214)" fill-opacity="0.5"/>
<defs>
<linearGradient id="paint0_linear_116_4214" x1="7.50001" y1="-5.47055e-06" x2="182" y2="167" gradientUnits="userSpaceOnUse">
<stop stop-color="#59627E" stop-opacity="0"/>
<stop offset="1" stop-color="#59627E"/>
</linearGradient>
</defs>
</svg>
