<svg width="158" height="38" viewBox="0 0 158 38" fill="none" xmlns="http://www.w3.org/2000/svg">
<path d="M0 8.27136L4.76088 16.4968V21.514L0.00556944 29.7233L0 8.27136Z" fill="url(#paint0_linear_111_4874)"/>
<path d="M18.2799 13.5038L22.741 10.8609L31.871 10.8526L18.2799 18.9004V13.5038Z" fill="url(#paint1_linear_111_4874)"/>
<path d="M18.2546 8.22287L18.2799 19.113L13.5078 16.2789V0L18.2546 8.22287Z" fill="url(#paint2_linear_111_4874)"/>
<path d="M31.871 10.8526L22.741 10.8609L18.2546 8.22287L13.5078 0L31.871 10.8526Z" fill="url(#paint3_linear_111_4874)"/>
<path d="M18.2799 29.7689V24.4853L13.5078 21.7049L13.5105 38L18.2799 29.7689Z" fill="url(#paint4_linear_111_4874)"/>
<path d="M22.7298 27.1501L4.76088 16.4968L0 8.27136L31.8516 27.1393L22.7298 27.1501Z" fill="url(#paint5_linear_111_4874)"/>
<path d="M13.5105 38L18.2799 29.7689L22.7298 27.1501L31.8516 27.1393L13.5105 38Z" fill="url(#paint6_linear_111_4874)"/>
<path d="M0.00556944 29.7233L13.5469 21.7051L8.99434 19.0052L4.76088 21.514L0.00556944 29.7233Z" fill="url(#paint7_linear_111_4874)"/>
<path d="M56.3906 18.8906H52.7031C52.4843 18.1094 52.0729 17.474 51.4687 16.9844C50.8645 16.4948 50.0989 16.25 49.1718 16.25C47.9426 16.25 46.9635 16.7448 46.2343 17.7344C45.5156 18.7135 45.1562 20.0417 45.1562 21.7188C45.1562 23.4167 45.5156 24.7552 46.2343 25.7344C46.9635 26.7031 47.9479 27.1875 49.1874 27.1875C50.1145 27.1875 50.8801 26.9583 51.4843 26.5C52.0989 26.0417 52.5156 25.3958 52.7343 24.5625H56.4218C56.1822 26.3125 55.4114 27.7135 54.1093 28.7656C52.8176 29.8073 51.1666 30.3281 49.1562 30.3281C46.7291 30.3281 44.802 29.5573 43.3749 28.0156C41.9479 26.474 41.2343 24.375 41.2343 21.7188C41.2343 19.0938 41.9479 17 43.3749 15.4375C44.802 13.875 46.7187 13.0938 49.1249 13.0938C51.1458 13.0938 52.802 13.6406 54.0937 14.7344C55.3854 15.8281 56.151 17.2135 56.3906 18.8906Z" fill="#EEF2FF"/>
<path d="M66.6249 30.3281C63.9895 30.3281 61.9687 29.4896 60.5624 27.8125C59.1666 26.1354 58.4687 23.6771 58.4687 20.4375C58.4687 17.3646 58.7968 14.875 59.4531 12.9688C60.1197 11.0521 61.1093 9.64583 62.4218 8.75C63.7447 7.85417 65.4531 7.36979 67.5468 7.29688L69.2187 7.25C70.1562 7.20833 71.0364 7.11458 71.8593 6.96875C72.6822 6.82292 73.2499 6.66667 73.5624 6.5V9.60938C73.3749 9.78646 72.8906 9.95833 72.1093 10.125C71.3385 10.2812 70.4531 10.3802 69.4531 10.4219L67.8437 10.4688C66.7708 10.5 65.8645 10.651 65.1249 10.9219C64.3958 11.1823 63.7864 11.5938 63.2968 12.1562C62.8176 12.7083 62.4426 13.375 62.1718 14.1562C61.901 14.9271 61.6926 15.8958 61.5468 17.0625H61.6718C62.1926 16.0625 62.9322 15.3021 63.8906 14.7812C64.8489 14.25 65.9843 13.9844 67.2968 13.9844C69.5364 13.9844 71.3229 14.7031 72.6562 16.1406C73.9895 17.5677 74.6562 19.4948 74.6562 21.9219C74.6562 24.526 73.9374 26.5781 72.4999 28.0781C71.0729 29.5781 69.1145 30.3281 66.6249 30.3281ZM66.5781 27.1719C67.8697 27.1719 68.8749 26.724 69.5937 25.8281C70.3124 24.9219 70.6718 23.6458 70.6718 22C70.6718 20.4167 70.3124 19.1927 69.5937 18.3281C68.8749 17.4531 67.8697 17.0156 66.5781 17.0156C65.276 17.0156 64.2604 17.4531 63.5312 18.3281C62.8124 19.1927 62.4531 20.4167 62.4531 22C62.4531 23.6562 62.8124 24.9323 63.5312 25.8281C64.2499 26.724 65.2656 27.1719 66.5781 27.1719Z" fill="#EEF2FF"/>
<path d="M88.1874 30V16.4375H81.3437V30H77.4687V13.4375H92.0781V30H88.1874Z" fill="#EEF2FF"/>
<path d="M110.453 24.0625H110.375L106.937 30H102.797L108.141 21.7344L102.844 13.4375H107.219L110.562 19.25H110.641L113.937 13.4375H118.203L112.875 21.625L118.141 30H113.891L110.453 24.0625Z" fill="#8D97B7"/>
<path fill-rule="evenodd" clip-rule="evenodd" d="M144.587 7L135.951 7C131.008 7 127 10.9496 127 15.8216C127 20.5393 130.758 24.3922 135.484 24.6314L131.607 31H137.662L144.376 19.973H135.951C133.625 19.973 131.739 18.1143 131.739 15.8216C131.739 13.5289 133.625 11.6703 135.951 11.6703H143.77L139.9 18.027H148.325C150.651 18.027 152.537 19.8857 152.537 22.1783C152.537 24.4711 150.651 26.3297 148.325 26.3297H142.533L139.69 31H148.325C153.269 31 157.276 27.0503 157.276 22.1783C157.276 17.4606 153.518 13.6078 148.792 13.3686L152.669 7L146.614 7L143.77 11.6703H141.743L144.587 7Z" fill="url(#paint8_linear_111_4874)"/>
<defs>
<linearGradient id="paint0_linear_111_4874" x1="54.5443" y1="-12.5372" x2="59.1582" y2="49.7645" gradientUnits="userSpaceOnUse">
<stop offset="0.0865385" stop-color="#5F82FF"/>
<stop offset="0.858739" stop-color="#4B72FF"/>
</linearGradient>
<linearGradient id="paint1_linear_111_4874" x1="54.5443" y1="-12.5372" x2="59.1582" y2="49.7645" gradientUnits="userSpaceOnUse">
<stop offset="0.0865385" stop-color="#5F82FF"/>
<stop offset="0.858739" stop-color="#4B72FF"/>
</linearGradient>
<linearGradient id="paint2_linear_111_4874" x1="54.5443" y1="-12.5372" x2="59.1582" y2="49.7645" gradientUnits="userSpaceOnUse">
<stop offset="0.0865385" stop-color="#5F82FF"/>
<stop offset="0.858739" stop-color="#4B72FF"/>
</linearGradient>
<linearGradient id="paint3_linear_111_4874" x1="54.5443" y1="-12.5372" x2="59.1582" y2="49.7645" gradientUnits="userSpaceOnUse">
<stop offset="0.0865385" stop-color="#5F82FF"/>
<stop offset="0.858739" stop-color="#4B72FF"/>
</linearGradient>
<linearGradient id="paint4_linear_111_4874" x1="54.5443" y1="-12.5372" x2="59.1582" y2="49.7645" gradientUnits="userSpaceOnUse">
<stop offset="0.0865385" stop-color="#5F82FF"/>
<stop offset="0.858739" stop-color="#4B72FF"/>
</linearGradient>
<linearGradient id="paint5_linear_111_4874" x1="54.5443" y1="-12.5372" x2="59.1582" y2="49.7645" gradientUnits="userSpaceOnUse">
<stop offset="0.0865385" stop-color="#5F82FF"/>
<stop offset="0.858739" stop-color="#4B72FF"/>
</linearGradient>
<linearGradient id="paint6_linear_111_4874" x1="54.5443" y1="-12.5372" x2="59.1582" y2="49.7645" gradientUnits="userSpaceOnUse">
<stop offset="0.0865385" stop-color="#5F82FF"/>
<stop offset="0.858739" stop-color="#4B72FF"/>
</linearGradient>
<linearGradient id="paint7_linear_111_4874" x1="54.5443" y1="-12.5372" x2="59.1582" y2="49.7645" gradientUnits="userSpaceOnUse">
<stop offset="0.0865385" stop-color="#5F82FF"/>
<stop offset="0.858739" stop-color="#4B72FF"/>
</linearGradient>
<linearGradient id="paint8_linear_111_4874" x1="54.5443" y1="-12.5372" x2="59.1582" y2="49.7645" gradientUnits="userSpaceOnUse">
<stop offset="0.0865385" stop-color="#5F82FF"/>
<stop offset="0.858739" stop-color="#4B72FF"/>
</linearGradient>
</defs>
</svg>
