<svg width="361" height="196" viewBox="0 0 361 196" fill="none" xmlns="http://www.w3.org/2000/svg">
<g clip-path="url(#clip0_6_5205)">
<rect width="361" height="196" rx="14" fill="url(#paint0_linear_6_5205)"/>
<g opacity="0.9">
<path d="M323 42.0005C323 39.8532 322.049 37.9262 320.549 36.6216C320.08 36.2139 319.369 36.2641 318.961 36.7329C318.554 37.2018 318.604 37.9122 319.072 38.3198C320.102 39.2153 320.75 40.5317 320.75 42.0005C320.75 43.469 320.102 44.7848 319.072 45.6802C318.603 46.0879 318.553 46.7992 318.961 47.2681C319.369 47.7369 320.08 47.7861 320.549 47.3784C322.049 46.0739 323 44.1475 323 42.0005ZM330.5 42.0005C330.5 38.0648 328.944 34.4897 326.416 31.8618C325.985 31.4141 325.273 31.4008 324.825 31.8315C324.378 32.2622 324.364 32.9736 324.794 33.4214C326.935 35.647 328.25 38.6694 328.25 42.0005C328.25 45.3314 326.935 48.3531 324.794 50.5786C324.363 51.0264 324.378 51.7387 324.825 52.1694C325.273 52.6 325.985 52.5859 326.416 52.1382C328.944 49.5103 330.5 45.9359 330.5 42.0005ZM338 42.0005C338 36.2489 335.804 31.0077 332.206 27.0737C331.787 26.6153 331.076 26.5833 330.617 27.0024C330.159 27.4217 330.127 28.1328 330.546 28.5913C333.779 32.1268 335.75 36.8326 335.75 42.0005C335.75 47.1683 333.779 51.8733 330.546 55.4087C330.127 55.8672 330.159 56.5783 330.617 56.9976C331.076 57.4168 331.787 57.3855 332.206 56.9272C335.804 52.9934 338 47.752 338 42.0005Z" fill="#EEF2FF"/>
</g>
<g opacity="0.9">
<path fill-rule="evenodd" clip-rule="evenodd" d="M50.38 24L37.4269 24C30.0114 24 24 29.9243 24 37.2324C24 44.309 29.6367 50.0883 36.7268 50.4471L30.9109 60H39.9938L44.2589 52.9945L50.0639 43.4595H41.1785H40.9811H37.4269C33.9373 43.4595 31.1084 40.6715 31.1084 37.2324C31.1084 33.7933 33.9373 31.0054 37.4269 31.0054H49.1556L43.3505 40.5405H52.2359H52.4335H55.9877C59.4771 40.5405 62.3061 43.3285 62.3061 46.7675C62.3061 50.2066 59.4771 52.9945 55.9877 52.9945H47.2996L43.0346 60H55.9877C63.4029 60 69.4145 54.0755 69.4145 46.7675C69.4145 39.6909 63.7777 33.9117 56.6876 33.5528L62.5036 24L53.4207 24L49.1556 31.0054H46.1148L50.38 24Z" fill="#EEF2FF"/>
</g>
<g style="mix-blend-mode:overlay" opacity="0.9" filter="url(#filter0_f_6_5205)">
<ellipse cx="125.602" cy="-63.2859" rx="26.184" ry="190.365" transform="rotate(25.1492 125.602 -63.2859)" fill="white"/>
<ellipse cx="267.866" cy="-28.9997" rx="26.184" ry="190.365" transform="rotate(25.1492 267.866 -28.9997)" fill="white"/>
<ellipse cx="410.128" cy="5.28544" rx="26.184" ry="190.365" transform="rotate(25.1492 410.128 5.28544)" fill="white"/>
</g>
</g>
<defs>
<filter id="filter0_f_6_5205" x="-43.6418" y="-320.891" width="623.014" height="583.782" filterUnits="userSpaceOnUse" color-interpolation-filters="sRGB">
<feFlood flood-opacity="0" result="BackgroundImageFix"/>
<feBlend mode="normal" in="SourceGraphic" in2="BackgroundImageFix" result="shape"/>
<feGaussianBlur stdDeviation="42.4605" result="effect1_foregroundBlur_6_5205"/>
</filter>
<linearGradient id="paint0_linear_6_5205" x1="125.197" y1="-64.6655" x2="177.518" y2="249.736" gradientUnits="userSpaceOnUse">
<stop offset="0.0865385" stop-color="#5F82FF"/>
<stop offset="0.858739" stop-color="#4B72FF"/>
</linearGradient>
<clipPath id="clip0_6_5205">
<rect width="361" height="196" rx="14" fill="white"/>
</clipPath>
</defs>
</svg>
