<svg width="19" height="17" viewBox="0 0 19 17" fill="none" xmlns="http://www.w3.org/2000/svg">
<path fill-rule="evenodd" clip-rule="evenodd" d="M7.33333 0H8.38095C11.3467 0 13.8327 2.09674 14.4941 4.91731C14.6069 5.39832 14.6667 5.90037 14.6667 6.41667C14.6667 9.96049 11.8525 12.8333 8.38095 12.8333H4.54815H2.09524C0.93807 12.8333 0 11.8757 0 10.6944V7.48611C0 3.35165 3.28325 0 7.33333 0ZM8.64285 14.6667H5.55329C6.687 15.8007 8.2397 16.5 9.95238 16.5H13.7852H16.2381C17.3953 16.5 18.3333 15.5424 18.3333 14.3611V11.1528C18.3333 9.2527 17.6399 7.51797 16.4973 6.19791C16.4991 6.27059 16.5 6.34351 16.5 6.41666C16.5 10.973 12.9822 14.6667 8.64285 14.6667Z" fill="#59627E"/>
</svg>
