<svg width="62" height="48" viewBox="0 0 62 48" fill="none" xmlns="http://www.w3.org/2000/svg">
<path fill-rule="evenodd" clip-rule="evenodd" d="M35.1733 7.44e-07L17.9025 0C8.01524 0 0 7.89913 0 17.6432C0 27.0786 7.51565 34.7844 16.9691 35.2628L9.21453 48H21.3251L27.0118 38.6594L34.7519 25.9459H22.9047H22.6414H17.9025C13.2497 25.9459 9.4778 22.2287 9.4778 17.6432C9.4778 13.0578 13.2497 9.34054 17.9025 9.34054H33.5408L25.8007 22.0541H37.6479H37.9113H42.6502C47.3029 22.0541 51.0748 25.7713 51.0748 30.3567C51.0748 34.9421 47.3029 38.6594 42.6502 38.6594H31.0662L25.3795 48H42.6502C52.5372 48 60.5526 40.1007 60.5526 30.3567C60.5526 20.9212 53.0369 13.2156 43.5834 12.7371L51.3382 3.16514e-06L39.2277 2.12173e-06L33.5408 9.34054H29.4865L35.1733 7.44e-07Z" fill="url(#paint0_linear_6_5217)"/>
<defs>
<linearGradient id="paint0_linear_6_5217" x1="21" y1="-15.8365" x2="39.1542" y2="58.8812" gradientUnits="userSpaceOnUse">
<stop offset="0.0865385" stop-color="#5F82FF"/>
<stop offset="0.858739" stop-color="#4B72FF"/>
</linearGradient>
</defs>
</svg>
